<?xml version="1.0" standalone="no"?>
<!DOCTYPE svg PUBLIC "-//W3C//DTD SVG 20010904//EN"
 "http://www.w3.org/TR/2001/REC-SVG-20010904/DTD/svg10.dtd">
<svg version="1.0" xmlns="http://www.w3.org/2000/svg"
 width="355.000000pt" height="355.000000pt" viewBox="0 0 355.000000 355.000000"
 preserveAspectRatio="xMidYMid meet">
<metadata>
Created by potrace 1.11, written by Peter Selinger 2001-2013
</metadata>
<g transform="translate(0.000000,355.000000) scale(0.100000,-0.100000)"
fill="#000000" stroke="none">
<path d="M1728 2814 c-2 -1 -25 -4 -50 -5 -26 -2 -45 -6 -43 -10 4 -6 -114
-28 -177 -32 -16 -1 -28 -5 -28 -9 0 -4 -31 -10 -70 -14 -38 -3 -70 -11 -70
-16 0 -6 -18 -8 -40 -6 -22 2 -40 0 -40 -4 0 -5 -18 -8 -39 -8 -22 0 -43 -5
-47 -11 -3 -6 -17 -9 -30 -6 -13 2 -24 1 -24 -4 0 -4 -36 -11 -80 -15 -49 -4
-77 -10 -73 -17 3 -6 -8 -8 -31 -5 -20 2 -36 0 -36 -4 0 -4 -18 -8 -39 -8 -22
0 -42 -4 -45 -9 -3 -5 -27 -12 -53 -15 -98 -14 -113 -18 -106 -30 3 -6 0 -6
-8 2 -7 6 -17 12 -21 12 -4 0 -8 -62 -8 -137 l0 -138 38 -31 38 -32 74 14 c41
7 114 20 163 29 48 10 94 14 102 11 13 -5 15 -85 15 -599 l0 -593 39 -38 39
-38 64 10 c35 6 107 19 161 29 l97 17 0 647 c0 422 3 650 10 654 6 3 31 10 58
15 141 27 262 51 302 59 25 6 48 10 53 11 4 0 7 61 7 135 l0 134 -30 16 c-16
9 -30 19 -30 24 0 9 -36 22 -42 15z m59 -50 c-3 -3 -12 -4 -19 -1 -8 3 -5 6 6
6 11 1 17 -2 13 -5z m-70 -10 c-3 -3 -12 -4 -19 -1 -8 3 -5 6 6 6 11 1 17 -2
13 -5z m-144 -31 c-7 -2 -19 -2 -25 0 -7 3 -2 5 12 5 14 0 19 -2 13 -5z m-140
-30 c-7 -2 -19 -2 -25 0 -7 3 -2 5 12 5 14 0 19 -2 13 -5z m-76 -9 c-3 -3 -12
-4 -19 -1 -8 3 -5 6 6 6 11 1 17 -2 13 -5z m-150 -30 c-3 -3 -12 -4 -19 -1 -8
3 -5 6 6 6 11 1 17 -2 13 -5z m-140 -30 c-3 -3 -12 -4 -19 -1 -8 3 -5 6 6 6
11 1 17 -2 13 -5z m-70 -10 c-3 -3 -12 -4 -19 -1 -8 3 -5 6 6 6 11 1 17 -2 13
-5z m-154 -31 c-7 -2 -19 -2 -25 0 -7 3 -2 5 12 5 14 0 19 -2 13 -5z m-140
-30 c-7 -2 -19 -2 -25 0 -7 3 -2 5 12 5 14 0 19 -2 13 -5z"/>
<path d="M2915 2409 c-16 -5 -91 -20 -165 -34 -74 -14 -135 -27 -135 -28 -1
-1 -17 -24 -37 -52 -19 -27 -69 -99 -110 -160 -41 -60 -115 -168 -164 -240
-48 -71 -103 -152 -121 -180 l-33 -50 0 246 0 246 -45 42 c-34 31 -51 40 -67
36 -21 -5 -87 -18 -245 -47 l-63 -11 0 -776 0 -777 44 -43 45 -44 68 16 c37 9
86 19 108 22 65 10 140 29 145 37 3 4 7 130 8 280 l3 273 56 53 c31 28 59 52
63 52 4 0 32 -37 63 -83 31 -45 78 -113 106 -152 28 -38 72 -101 98 -140 26
-38 71 -94 100 -124 l52 -55 170 34 c94 18 176 37 182 41 10 6 -17 54 -64 114
-5 5 -82 114 -172 240 -90 127 -183 257 -207 289 -23 33 -51 72 -60 87 l-17
27 98 144 c167 245 271 398 358 527 l85 123 -38 39 c-39 40 -55 44 -109 28z"/>
</g>
</svg>
